<svg width="166" height="44" viewBox="0 0 166 44" fill="none" xmlns="http://www.w3.org/2000/svg">
<mask id="mask0" mask-type="alpha" maskUnits="userSpaceOnUse" x="0" y="3" width="89" height="41">
<path fill-rule="evenodd" clip-rule="evenodd" d="M0 3.09075H89V43.5628H0V3.09075Z" fill="white"/>
</mask>
<g mask="url(#mask0)">
<path fill-rule="evenodd" clip-rule="evenodd" d="M75.8719 39.1403L75.6548 40.06C75.6394 40.1325 75.607 40.2866 75.5577 40.5222L75.4608 40.9798H75.4375L75.3036 40.5222C75.2327 40.2746 75.1898 40.1206 75.1744 40.06L74.8972 39.1403L74.343 37.305H73.2066L74.6525 41.6369H75.1928C75.0729 42.4044 74.788 42.788 74.3382 42.788C74.2768 42.788 74.1998 42.7848 74.1074 42.7787V43.5445C74.2367 43.5567 74.3614 43.5628 74.4815 43.5628C75.0144 43.5628 75.4013 43.4501 75.6432 43.2251C75.885 43.0001 76.0872 42.5614 76.2506 41.9088L77.4099 37.305H76.2966L75.8719 39.1403ZM71.8211 39.4392C71.8211 38.8714 71.7617 38.5014 71.6432 38.3292C71.5248 38.1569 71.2686 38.0708 70.8742 38.0708C70.1876 38.0708 69.8442 38.4893 69.8442 39.326C69.8442 39.9816 69.9028 40.4021 70.0198 40.5879C70.1368 40.7737 70.4016 40.8666 70.8142 40.8666C71.2453 40.8666 71.5209 40.7812 71.641 40.6105C71.761 40.4401 71.8211 40.0495 71.8211 39.4392ZM72.5393 37.7061C72.7748 38.0095 72.8927 38.5721 72.8927 39.394C72.8927 40.2912 72.7731 40.8976 72.5347 41.2132C72.2961 41.5288 71.8379 41.6867 71.1606 41.6867C70.4739 41.6867 70.0227 41.442 69.8074 40.9526H69.7842L69.8304 41.6369H68.7726V35.4518H69.8304V37.9258L69.8533 37.9349C70.0351 37.4789 70.4955 37.2506 71.2344 37.2506C71.8689 37.2506 72.3037 37.4025 72.5393 37.7061ZM66.7229 41.6367H67.7806V40.5219H66.7229V41.6367ZM64.8154 39.3666C64.8154 38.8137 64.7553 38.4603 64.6351 38.3062C64.5152 38.1522 64.238 38.0751 63.8039 38.0751C63.3634 38.0751 63.0833 38.1528 62.9632 38.3085C62.843 38.464 62.7831 38.8273 62.7831 39.3983C62.7831 40.0508 62.8399 40.4586 62.9538 40.6217C63.0679 40.7848 63.3526 40.8664 63.8083 40.8664C64.2487 40.8664 64.5266 40.7803 64.6422 40.608C64.7575 40.436 64.8154 40.0221 64.8154 39.3666ZM65.4877 37.6564C65.7528 37.9239 65.8851 38.4879 65.8851 39.3489C65.8851 40.3094 65.7557 40.9394 65.4971 41.2384C65.2383 41.5375 64.6934 41.6869 63.862 41.6869C62.9596 41.6869 62.3755 41.548 62.1092 41.2701C61.8428 40.9922 61.7096 40.3803 61.7096 39.435C61.7096 38.5257 61.8405 37.9351 62.1022 37.6632C62.364 37.3912 62.9336 37.2555 63.8112 37.2555C64.6641 37.2555 65.223 37.3891 65.4877 37.6564ZM60.1216 37.2371C59.5796 37.2371 59.1824 37.4636 58.9301 37.9168L58.9069 37.9123L58.9716 37.305H57.9139V41.6369H58.9716V39.0858C58.9716 38.4001 59.2334 38.0573 59.7568 38.0573C60.1233 38.0573 60.3063 38.2883 60.3063 38.7505C60.3063 38.7869 60.3002 38.8638 60.2879 38.9816H61.2855V38.678C61.2855 37.7174 60.8978 37.2371 60.1216 37.2371ZM55.9334 39.4756C55.9334 38.8837 55.871 38.5015 55.7464 38.3293C55.6216 38.157 55.3438 38.0709 54.9126 38.0709C54.5093 38.0709 54.246 38.16 54.1229 38.3383C53.9997 38.5166 53.9381 38.8941 53.9381 39.471C53.9381 40.033 54.0044 40.4061 54.1366 40.5903C54.2691 40.7743 54.5386 40.8667 54.945 40.8667C55.3578 40.8667 55.6255 40.7791 55.7487 40.6038C55.8718 40.4288 55.9334 40.0525 55.9334 39.4756ZM56.6413 37.7197C56.883 38.0324 57.004 38.6026 57.004 39.4302C57.004 40.2941 56.884 40.8863 56.6437 41.2065C56.4035 41.5267 55.9585 41.6867 55.3089 41.6867C54.616 41.6867 54.1633 41.4602 53.9509 41.0071H53.9326V43.4949H52.8285V37.305H53.9049L53.8632 37.9485L53.8862 37.953C54.1419 37.4848 54.6176 37.2506 55.3136 37.2506C55.9571 37.2506 56.3996 37.407 56.6413 37.7197ZM51.3458 40.1418C51.3458 40.6281 51.1751 40.8713 50.8332 40.8713C50.5221 40.8713 50.3667 40.6702 50.3667 40.2685V38.0935H52.0663V37.305H50.3667V36.3354H49.309V37.305H48.7362V38.0935H49.309V40.418C49.309 41.267 49.7801 41.6912 50.7224 41.6912C51.6675 41.6912 52.1695 41.3605 52.2279 40.6989C52.2403 40.5569 52.2466 40.3863 52.2466 40.1869V39.9694H51.3458V40.1418ZM47.2821 39.0225L47.2775 38.8502C47.2775 38.506 47.2167 38.2823 47.0949 38.1797C46.9734 38.0769 46.7095 38.0256 46.3031 38.0256C45.9089 38.0256 45.6524 38.0876 45.534 38.2114C45.4155 38.3353 45.3561 38.6056 45.3561 39.0225H47.2821ZM47.9327 37.6743C48.2003 37.9568 48.3345 38.512 48.3345 39.3396V39.6567H45.3461C45.3399 39.7536 45.3369 39.8168 45.3369 39.8471C45.3369 40.273 45.4039 40.5569 45.5378 40.6989C45.6717 40.841 45.9388 40.9119 46.3391 40.9119C46.7272 40.9119 46.9796 40.8703 47.0967 40.7873C47.2136 40.7042 47.2722 40.5253 47.2722 40.2503H48.3345V40.418C48.3345 41.2638 47.6877 41.6867 46.3947 41.6867C45.517 41.6867 44.9427 41.5402 44.6718 41.2472C44.4009 40.9543 44.2653 40.3336 44.2653 39.385C44.2653 38.5422 44.4069 37.9757 44.6902 37.6856C44.9735 37.3957 45.5263 37.2506 46.3484 37.2506C47.1366 37.2506 47.6647 37.3917 47.9327 37.6743ZM43.6326 37.305H42.404L41.2124 38.9906H40.9399V35.4518H39.8821V41.6369H40.9399V39.7156H41.1985L42.6349 41.6369H43.9467L42.0946 39.3441L43.6326 37.305ZM37.8989 40.7059C37.7957 40.813 37.5622 40.8668 37.199 40.8668C36.7373 40.8668 36.4469 40.789 36.3284 40.6335C36.2099 40.4777 36.1507 40.0982 36.1507 39.4938C36.1507 38.8686 36.2046 38.4759 36.3123 38.3157C36.4201 38.1557 36.6847 38.0755 37.1067 38.0755C37.7009 38.0755 37.9981 38.3277 37.9981 38.8323H39.0466C39.0466 38.2189 38.9112 37.803 38.6403 37.5839C38.3691 37.3647 37.8518 37.2555 37.0882 37.2555C36.2969 37.2555 35.7641 37.4064 35.4901 37.7085C35.2161 38.0105 35.079 38.5967 35.079 39.4666C35.079 40.3577 35.2161 40.9506 35.4901 41.2451C35.7641 41.5397 36.3168 41.6869 37.1483 41.6869C38.2815 41.6869 38.9126 41.3879 39.0421 40.7899L39.1067 40.1327V39.9831H38.0535C38.0535 40.3577 38.002 40.5987 37.8989 40.7059ZM33.1441 41.6369H34.2019V37.305H33.1441V41.6369ZM33.1441 36.3171H34.2019V35.4517H33.1441V36.3171ZM31.6605 40.1418C31.6605 40.6281 31.4897 40.8713 31.1478 40.8713C30.8366 40.8713 30.6814 40.6702 30.6814 40.2685V38.0935H32.3811V37.305H30.6814V36.3354H29.6236V37.305H29.051V38.0935H29.6236V40.418C29.6236 41.267 30.0949 41.6912 31.0371 41.6912C31.9822 41.6912 32.4842 41.3605 32.5426 40.6989C32.5551 40.5569 32.5612 40.3863 32.5612 40.1869V39.9694H31.6605V40.1418ZM27.4815 41.6367H28.5393V40.5219H27.4815V41.6367ZM25.5027 39.3124C25.4473 39.5721 25.3934 39.841 25.3412 40.1189L25.2672 40.5222L25.1886 40.9254H25.1655L25.0778 40.5222L24.99 40.1189C24.9531 39.9621 24.8898 39.6947 24.8007 39.317L24.3203 37.305H22.9715L22.4913 39.317C22.4112 39.6493 22.3481 39.9165 22.3018 40.1189L22.2141 40.5222L22.1217 40.9254H22.1034L22.0248 40.5222L21.9508 40.1189C21.8983 39.8319 21.8461 39.5632 21.7938 39.3124L21.3688 37.305H20.3019L21.2858 41.6369H22.87L23.3133 39.6975C23.3905 39.3593 23.4457 39.1056 23.4797 38.9363L23.5583 38.5511L23.6368 38.1705H23.6691L23.7475 38.5511L23.8262 38.9317C23.863 39.107 23.9199 39.3622 23.997 39.6975L24.4405 41.6369H26.0015L26.99 37.305H25.9323L25.5027 39.3124ZM18.7833 39.3124C18.7279 39.5721 18.674 39.841 18.6217 40.1189L18.5476 40.5222L18.4692 40.9254H18.4461L18.3584 40.5222L18.2706 40.1189C18.2336 39.9621 18.1704 39.6947 18.0812 39.317L17.6009 37.305H16.2523L15.7718 39.317C15.6916 39.6493 15.6286 39.9165 15.5824 40.1189L15.4947 40.5222L15.4022 40.9254H15.3839L15.3053 40.5222L15.2314 40.1189C15.1789 39.8319 15.1267 39.5632 15.0744 39.3124L14.6496 37.305H13.5825L14.5663 41.6369H16.1505L16.594 39.6975C16.6709 39.3593 16.7264 39.1056 16.7603 38.9363L16.8388 38.5511L16.9172 38.1705H16.9497L17.028 38.5511L17.1066 38.9317C17.1437 39.107 17.2004 39.3622 17.2775 39.6975L17.7209 41.6369H19.2822L20.2705 37.305H19.2129L18.7833 39.3124ZM12.0623 39.3124C12.0068 39.5721 11.953 39.841 11.9006 40.1189L11.8267 40.5222L11.7483 40.9254H11.7251L11.6375 40.5222L11.5497 40.1189C11.5127 39.9621 11.4495 39.6947 11.3603 39.317L10.88 37.305H9.53121L9.05092 39.317C8.97074 39.6493 8.90769 39.9165 8.86152 40.1189L8.77375 40.5222L8.68141 40.9254H8.66284L8.58436 40.5222L8.51046 40.1189C8.458 39.8319 8.40569 39.5632 8.3535 39.3124L7.92853 37.305H6.86147L7.84547 41.6369H9.42958L9.87312 39.6975C9.95003 39.3593 10.0054 39.1056 10.0392 38.9363L10.1178 38.5511L10.1963 38.1705H10.2288L10.3071 38.5511L10.3857 38.9317C10.4227 39.107 10.4796 39.3622 10.5565 39.6975L11.0001 41.6369H12.5613L13.5496 37.305H12.4918L12.0623 39.3124ZM87.382 4.87873C87.455 4.82009 87.4917 4.74259 87.4917 4.64609C87.4917 4.58411 87.4741 4.52855 87.4387 4.4794C87.4034 4.43026 87.3545 4.39368 87.2917 4.36969C87.2293 4.34544 87.1132 4.33337 86.9438 4.33337H86.5496V4.9665H86.9702C87.1715 4.9665 87.3086 4.93725 87.382 4.87873ZM87.7447 5.74116L88.0062 6.1541H87.5795L87.3892 5.82162C87.2394 5.56139 87.1199 5.39829 87.0308 5.33157C86.9674 5.28242 86.875 5.25791 86.7536 5.25753H86.5505V6.1541H86.2019V4.04658H86.9409C87.1936 4.04658 87.3762 4.06608 87.4892 4.10496C87.6023 4.14384 87.6922 4.21172 87.7595 4.3086C87.8264 4.40549 87.8601 4.50827 87.8601 4.61721C87.8601 4.7712 87.8039 4.90516 87.6917 5.01924C87.5795 5.13331 87.4308 5.19735 87.2453 5.2112C87.321 5.24239 87.3819 5.2796 87.4276 5.32284C87.5138 5.40599 87.6195 5.54535 87.7447 5.74116ZM88.6695 5.07165C88.6695 4.78717 88.5947 4.51333 88.4453 4.25053C88.2958 3.98761 88.0877 3.78563 87.8206 3.64409C87.5537 3.50281 87.2803 3.43198 87.0009 3.43198C86.7194 3.43198 86.4461 3.50281 86.1798 3.64409C85.9137 3.78563 85.7054 3.98761 85.5551 4.25053C85.4047 4.51333 85.3296 4.78717 85.3296 5.07165C85.3296 5.35447 85.4035 5.62561 85.551 5.88494C85.6988 6.1444 85.9052 6.34664 86.1705 6.49125C86.4357 6.63625 86.7125 6.70863 87.0009 6.70863C87.2891 6.70863 87.566 6.63625 87.8312 6.49125C88.0966 6.34664 88.3025 6.1444 88.4493 5.88494C88.596 5.62561 88.6695 5.35447 88.6695 5.07165ZM89.0001 5.07159C89.0001 5.40972 88.9121 5.73475 88.7364 6.0467C88.5606 6.35864 88.3141 6.60104 87.997 6.7735C87.6797 6.94583 87.3481 7.03206 87.0018 7.03206C86.6553 7.03206 86.3234 6.94583 86.0064 6.7735C85.6893 6.60104 85.4424 6.35864 85.2655 6.0467C85.0891 5.73475 85.0007 5.40972 85.0007 5.07159C85.0007 4.73014 85.0904 4.40202 85.2699 4.08751C85.4491 3.77287 85.6986 3.53099 86.0184 3.36186C86.3384 3.19287 86.6659 3.10843 87.0018 3.10843C87.3375 3.10843 87.6652 3.19287 87.9848 3.36186C88.3048 3.53099 88.554 3.77287 88.7325 4.08751C88.911 4.40202 89.0001 4.73014 89.0001 5.07159ZM80.3489 7.57811C80.2581 6.94472 79.8284 6.37395 79.2965 6.36176C79.1077 6.36176 78.9011 6.42194 78.6873 6.58132C78.4282 6.84668 78.3008 7.20123 78.2349 7.5536V29.3266C78.3577 29.8127 78.5827 30.0781 78.9147 30.4561C79.0374 30.5509 79.1624 30.6513 79.2965 30.7483C79.8057 31.1127 80.3036 31.3292 80.3489 30.3558V7.57811ZM83.2255 7.55355L83.2457 7.68739V31.4863C83.123 32.7028 82.3887 33.7621 81.3342 34.2449L80.7022 34.3318C80.202 34.344 79.727 34.2961 79.2973 34.1981C77.3174 33.7476 75.9808 32.1932 75.4604 29.8963L75.3806 29.2407L75.3351 28.5717V7.334C75.5831 5.24329 76.5151 3.73694 78.4812 3.21506C78.7541 3.15257 79.0268 3.14256 79.2973 3.14256C81.4705 3.20493 83.1025 5.19529 83.2255 7.55355ZM67.7864 15.3332C68.0342 15.3921 68.6502 15.5494 69.223 15.5974C69.7548 15.6464 70.2642 15.6197 70.4686 15.3553L70.5959 15.1959L70.6596 14.8692V7.17912C70.637 6.80096 70.4551 6.52109 70.139 6.36172C69.8459 6.28922 69.5414 6.26458 69.223 6.25342C68.7364 6.22673 68.2364 6.25342 67.7864 6.25342V15.3332ZM67.7865 18.5009L67.8187 30.4618C66.832 30.1965 65.8953 29.8963 64.9086 29.7871V3.16707C66.2793 3.16707 67.7979 3.04555 69.223 3.1169C69.6322 3.14256 70.0255 3.17824 70.4119 3.22507C72.2577 3.73694 73.3305 5.14743 73.5125 7.15204V15.3789L73.4441 15.8895L73.4123 16.1683C73.242 16.7402 72.9372 17.5175 72.4805 17.8442C72.7897 18.5232 72.9827 19.1207 73.0033 19.9326L72.9579 29.6532V29.6778L72.9827 29.7871L73.06 30.3557L74.0217 32.2267L70.8187 31.222C70.3097 30.6746 70.1072 30.2497 70.1072 29.4346L70.0821 19.9326C70.039 19.4498 69.6755 19.1342 69.223 18.9134C68.7479 18.6948 68.1705 18.5834 67.7865 18.5009ZM43.8461 6.02616H46.876V27.5368C47.3512 27.5368 47.815 27.5526 48.2832 27.5526C48.7559 27.5526 49.2334 27.5637 49.7085 27.5637V6.02616H52.7044V3.11343H43.8461V6.02616ZM13.607 30.9755V3.11497H10.7314V31.7049C11.2406 31.6089 11.718 31.4984 12.1681 31.3898C12.6432 31.2692 13.1091 31.1351 13.607 30.9755ZM8.85378 3.11783H0.00012207V6.06046H2.98025V34.6606C3.46434 34.4778 3.953 34.2859 4.42819 34.0898C4.91464 33.8857 5.40108 33.677 5.87379 33.4196V6.06046H8.85378V3.11783ZM57.4112 14.2729C57.7384 14.3064 58.2931 14.38 58.8363 14.4055C59.3888 14.429 59.9344 14.3957 60.2184 14.2092L60.2389 14.0767L60.2639 13.8358V6.91039C60.1161 6.22696 59.7638 6.25365 59.1522 6.19347H57.4112V14.2729ZM58.8353 17.5029C58.3602 17.4695 57.8852 17.4081 57.4101 17.3613L57.3982 28.4514C56.7753 28.2808 56.4936 28.2269 55.0711 28.0504L54.5346 28.0184V3.14256C55.9144 3.14256 57.3965 3.04555 58.8353 3.1169C59.1967 3.14256 59.5695 3.16707 59.9333 3.21506C61.7334 3.59194 62.8656 4.79507 63.1135 6.7853V14.2358C63.0224 14.8447 62.886 15.4614 62.5587 15.9987C61.5631 17.4561 60.2514 17.602 58.8353 17.5029ZM18.3256 29.5953C18.6847 29.5953 19.037 29.5686 19.3644 29.5202C21.0714 29.216 22.3537 28.0698 23.0651 26.2549C23.5653 24.3067 23.2924 22.0488 23.2924 20.065C22.3741 20.1724 21.367 20.3075 20.4282 20.4171V25.2305C20.3578 25.5469 20.2123 25.7661 19.9872 25.9853C19.8394 26.107 19.6122 26.2427 19.3644 26.3421C18.8915 26.5197 18.3778 26.5479 18.3097 25.9497C18.3097 19.6624 18.3256 13.3595 18.3256 7.07107L18.3439 6.91568L18.4143 6.73333C18.5507 6.28062 18.9575 6.05016 19.3644 6.02552C19.7827 6.01436 20.2258 6.21005 20.4282 6.62375V11.7266L23.2924 11.5098V6.73333L23.2583 6.2334L23.1128 5.67226L22.906 5.18567C22.0808 3.81919 20.7693 3.0888 19.3644 3.09996C19.0166 3.09996 18.662 3.1468 18.3097 3.24406C16.6049 3.90311 15.666 5.0381 15.4591 7.02423C15.4591 13.4935 15.4137 20.0022 15.4137 26.4246C15.5955 28.2665 16.6049 29.2744 18.3256 29.5953ZM37.2154 27.422H38.4384C39.6273 27.4063 40.8388 27.3827 41.9686 27.3827L42.0013 24.555H39.0394L38.8325 24.5773H38.4711C38.0642 24.5773 37.771 24.5292 37.7233 24.0559V16.8871H42.0376V13.8757C40.9056 13.8757 39.6487 13.8968 38.4711 13.8968H38.0869L37.8279 13.9238H37.7233V6.29378C37.7233 6.21101 37.7824 6.07332 37.8482 6.07332L38.4711 6.06229L42.0013 6.00198V3.11363H37.3278C36.0616 3.33177 35.1796 4.08783 34.8817 5.4783V25.0157C35.1091 26.3694 35.9834 27.2004 37.2154 27.422ZM33.0196 25.162C33.2467 25.8912 34.1019 26.9708 34.5521 27.564L31.3441 27.7921C30.6055 26.9792 30.2236 26.2816 30.1553 25.1375L30.1622 19.5422L28.2528 17.4928C28.1687 17.5843 28.062 17.687 27.9687 17.7873C27.9664 21.2037 27.9687 24.795 27.9687 28.218L25.1069 28.537V3.09688H27.9596C27.9596 6.35608 27.9733 9.59512 27.9778 12.8355C28.0733 12.937 28.1687 13.0395 28.2551 13.132L30.1622 11.0826L30.1553 5.5578C30.1553 3.5451 31.3193 3.11921 31.3441 3.09124H34.2903C34.1971 3.2184 33.0196 3.81496 33.0196 5.53419V11.1104C33.0196 11.8152 32.906 12.3862 32.3173 13.084C32.3173 13.084 30.6692 14.8837 30.2258 15.3664C30.6874 15.8682 32.3173 17.6132 32.3173 17.6132C32.7832 18.1463 33.0196 18.8643 33.0196 19.5869V25.162Z" fill="#0066B2"/>
</g>
<path d="M105.981 16.1798H108.114L105.226 8.98517L108.114 3.19983H106.038L103.32 8.85537V3.19983H101.243V16.1798H103.32V12.1931L103.962 11.0063L105.981 16.1798Z" fill="#0066B2"/>
<path d="M113.665 3.19983H110.626L108.512 16.1798H110.418L110.777 13.8248H113.325L113.684 16.1798H115.779L113.665 3.19983ZM112.042 5.49913L113.042 12.0633H111.041L112.042 5.49913Z" fill="#0066B2"/>
<path d="M120.805 11.3401V13.1944C120.805 14.1215 120.389 14.4553 119.729 14.4553C119.068 14.4553 118.653 14.1215 118.653 13.1944V6.18521C118.653 5.25807 119.068 4.90576 119.729 4.90576C120.389 4.90576 120.805 5.25807 120.805 6.18521V7.57592H122.768V6.31501C122.768 4.23822 121.711 3.05148 119.672 3.05148C117.633 3.05148 116.576 4.23822 116.576 6.31501V13.0646C116.576 15.1414 117.633 16.3281 119.672 16.3281C121.711 16.3281 122.768 15.1414 122.768 13.0646V11.3401H120.805Z" fill="#0066B2"/>
<path d="M128.086 11.3401V13.1944C128.086 14.1215 127.671 14.4553 127.01 14.4553C126.349 14.4553 125.934 14.1215 125.934 13.1944V6.18521C125.934 5.25807 126.349 4.90576 127.01 4.90576C127.671 4.90576 128.086 5.25807 128.086 6.18521V7.57592H130.049V6.31501C130.049 4.23822 128.992 3.05148 126.953 3.05148C124.915 3.05148 123.858 4.23822 123.858 6.31501V13.0646C123.858 15.1414 124.915 16.3281 126.953 16.3281C128.992 16.3281 130.049 15.1414 130.049 13.0646V11.3401H128.086Z" fill="#0066B2"/>
<path d="M133.215 6.18521C133.215 5.25807 133.631 4.90576 134.291 4.90576C134.952 4.90576 135.367 5.25807 135.367 6.18521V13.1944C135.367 14.1215 134.952 14.4738 134.291 14.4738C133.631 14.4738 133.215 14.1215 133.215 13.1944V6.18521ZM131.139 13.0646C131.139 15.1414 132.253 16.3281 134.291 16.3281C136.33 16.3281 137.444 15.1414 137.444 13.0646V6.31501C137.444 4.23822 136.33 3.05148 134.291 3.05148C132.253 3.05148 131.139 4.23822 131.139 6.31501V13.0646Z" fill="#0066B2"/>
<path d="M141.927 3.19983H138.793V16.1798H142.059C144.135 16.1798 145.211 15.1043 145.211 13.1017V12.0447C145.211 10.6726 144.777 9.6898 143.663 9.26331C144.588 8.83683 145.003 7.98386 145.003 6.64878V6.18521C145.003 4.18259 144.078 3.19983 141.927 3.19983ZM141.794 10.3388C142.738 10.3388 143.135 10.7096 143.135 11.9149V13.046C143.135 14.0103 142.757 14.3255 142.059 14.3255H140.869V10.3388H141.794ZM141.87 5.0541C142.606 5.0541 142.927 5.46204 142.927 6.38918V7.11235C142.927 8.15075 142.455 8.48452 141.681 8.48452H140.869V5.0541H141.87Z" fill="#0066B2"/>
<path d="M149.52 16.1798C151.596 16.1798 152.615 15.0487 152.615 12.9719V11.2845C152.615 9.20768 151.596 8.07658 149.52 8.07658H148.538V3.19983H146.462V16.1798H149.52ZM148.538 14.3255V9.93085H149.52C150.18 9.93085 150.539 10.2275 150.539 11.1547V13.1017C150.539 14.0288 150.18 14.3255 149.52 14.3255H148.538ZM155.881 16.1798V3.19983H153.804V16.1798H155.881Z" fill="#0066B2"/>
<path d="M159.526 16.1798H157.393V3.19983H159.243V11.4143L159.998 8.55869L161.697 3.19983H163.981V16.1798H162.112V7.03818L161.262 10.2275L159.526 16.1798ZM161.659 0.307152C161.602 0.993234 161.281 1.16012 160.715 1.16012C160.168 1.16012 159.885 0.993234 159.828 0.307152H158.544C158.582 1.56806 159.262 2.3654 160.715 2.3654C162.187 2.3654 162.924 1.56806 162.924 0.307152H161.659Z" fill="#0066B2"/>
<path d="M104.113 21.7426H101.224V34.7225H103.037V25.5439L104.584 34.7225H106.548L107.982 25.4141V34.7225H109.945V21.7426H107.057L105.642 30.9584L104.113 21.7426Z" fill="#0066B2"/>
<path d="M113.362 24.728C113.362 23.8008 113.777 23.4485 114.438 23.4485C115.099 23.4485 115.514 23.8008 115.514 24.728V31.7372C115.514 32.6643 115.099 33.0166 114.438 33.0166C113.777 33.0166 113.362 32.6643 113.362 31.7372V24.728ZM111.286 31.6074C111.286 33.6841 112.4 34.8709 114.438 34.8709C116.477 34.8709 117.59 33.6841 117.59 31.6074V24.8578C117.59 22.781 116.477 21.5943 114.438 21.5943C112.4 21.5943 111.286 22.781 111.286 24.8578V31.6074Z" fill="#0066B2"/>
<path d="M127 36.4656V32.9053H126.094V21.7426H120.28L119.808 31.218C119.77 31.9782 119.657 32.4603 119.299 32.9053H118.487V36.4656H120.507V34.7225H124.943V36.4656H127ZM122.224 23.5969H123.98V32.9053H121.262C121.601 32.5901 121.79 32.1636 121.847 31.1809L122.224 23.5969Z" fill="#0066B2"/>
<path d="M134.99 21.7426H132.819L131.875 26.1929L131.385 29.2153L130.743 26.1743L129.61 21.7426H127.553L130.422 31.7557L130.403 31.867C130.233 32.8126 129.629 32.9981 128.572 32.9239V34.7411C131.46 34.9265 132.272 33.7583 132.763 31.4219L134.99 21.7426Z" fill="#0066B2"/>
<path d="M135.277 34.7411H135.598C137.674 34.7411 138.543 33.8139 138.618 31.4405L138.845 23.5969H140.657V34.7225H142.771V21.7426H136.9L136.561 31.5517C136.523 32.757 136.221 32.8868 135.277 32.8868V34.7411Z" fill="#0066B2"/>
<path d="M147.418 34.7225C149.494 34.7225 150.514 33.5914 150.514 31.5146V29.8272C150.514 27.7505 149.494 26.6193 147.418 26.6193H146.437V21.7426H144.36V34.7225H147.418ZM146.437 32.8683V28.4736H147.418C148.079 28.4736 148.437 28.7703 148.437 29.6975V31.6444C148.437 32.5716 148.079 32.8683 147.418 32.8683H146.437Z" fill="#0066B2"/>
</svg>
