<svg width="40" height="40" viewBox="0 0 40 40" fill="none" xmlns="http://www.w3.org/2000/svg">
<path d="M16.5 16C16.5 14.0706 18.0706 12.5 20 12.5C21.9294 12.5 23.5 14.0706 23.5 16C23.5 17.9294 21.9294 19.5 20 19.5C18.0706 19.5 16.5 17.9294 16.5 16Z" stroke="#0066B2"/>
<mask id="path-2-inside-1" fill="white">
<path fill-rule="evenodd" clip-rule="evenodd" d="M28.6404 25.319C27.5474 22.8262 24.0874 21 19.9999 21C15.9123 21 12.4524 22.8262 11.3594 25.319C13.5438 27.587 16.61 29 19.9999 29C23.3898 29 26.456 27.587 28.6404 25.319Z"/>
</mask>
<path d="M28.6404 25.319L29.3607 26.0127L29.8251 25.5305L29.5562 24.9174L28.6404 25.319ZM11.3594 25.319L10.4435 24.9174L10.1747 25.5305L10.6391 26.0127L11.3594 25.319ZM29.5562 24.9174C28.2401 21.9157 24.2969 20 19.9999 20V22C23.878 22 26.8547 23.7366 27.7246 25.7205L29.5562 24.9174ZM19.9999 20C15.7029 20 11.7597 21.9157 10.4435 24.9174L12.2752 25.7205C13.1451 23.7366 16.1218 22 19.9999 22V20ZM10.6391 26.0127C13.0035 28.4676 16.3263 30 19.9999 30V28C16.8937 28 14.084 26.7063 12.0796 24.6253L10.6391 26.0127ZM19.9999 30C23.6735 30 26.9963 28.4676 29.3607 26.0127L27.9202 24.6253C25.9158 26.7063 23.1061 28 19.9999 28V30Z" fill="#0066B2" mask="url(#path-2-inside-1)"/>
</svg>
